<svg width="24" height="24" viewBox="0 0 24 24" fill="none" xmlns="http://www.w3.org/2000/svg">
<g id="Flag" clip-path="url(#clip0_3999_25212)">
<path id="Vector" d="M12 24C18.6274 24 24 18.6274 24 12C24 5.37258 18.6274 0 12 0C5.37258 0 0 5.37258 0 12C0 18.6274 5.37258 24 12 24Z" fill="#F0F0F0"/>
<path id="Vector_2" d="M23.9999 12C23.9999 7.24242 21.2312 3.13167 17.2173 1.19067V22.8092C21.2312 20.8682 23.9999 16.7575 23.9999 12V12Z" fill="#D80027"/>
<g id="Group">
<path id="Vector_3" d="M0 12C0 16.7575 2.76867 20.8682 6.78262 22.8092V1.19067C2.76867 3.13167 0 7.24242 0 12Z" fill="#6DA544"/>
<path id="Vector_4" d="M8.86963 12C8.86963 13.7289 10.2712 15.1305 12.0001 15.1305C13.729 15.1305 15.1305 13.7289 15.1305 12V10.9565H8.86963V12Z" fill="#6DA544"/>
</g>
<path id="Vector_5" d="M16.1738 9.91311H13.0433C13.0433 9.33683 12.5761 8.86963 11.9999 8.86963C11.4236 8.86963 10.9564 9.33683 10.9564 9.91311H7.82593C7.82593 10.4894 8.32791 10.9566 8.90415 10.9566H8.86941C8.86941 11.5329 9.33657 12.0001 9.9129 12.0001C9.9129 12.5764 10.3801 13.0436 10.9564 13.0436H13.0433C13.6197 13.0436 14.0868 12.5764 14.0868 12.0001C14.6632 12.0001 15.1303 11.5329 15.1303 10.9566H15.0955C15.6719 10.9566 16.1738 10.4894 16.1738 9.91311Z" fill="#FF9811"/>
</g>
<defs>
<clipPath id="clip0_3999_25212">
<rect width="24" height="24" fill="white"/>
</clipPath>
</defs>
</svg>
